<mxfile host="65bd71144e">
    <diagram id="naFQU-C3lpWFJUoVj6_K" name="第 1 页">
        <mxGraphModel dx="1856" dy="1673" grid="1" gridSize="10" guides="1" tooltips="1" connect="1" arrows="1" fold="1" page="1" pageScale="1" pageWidth="827" pageHeight="1169" math="0" shadow="0">
            <root>
                <mxCell id="0"/>
                <mxCell id="1" parent="0"/>
                <mxCell id="C61x0PHZbPYTwjd0VCUy-19" style="edgeStyle=none;html=1;fontSize=24;entryX=0.16;entryY=0.55;entryDx=0;entryDy=0;entryPerimeter=0;" parent="1" source="C61x0PHZbPYTwjd0VCUy-20" target="C61x0PHZbPYTwjd0VCUy-25" edge="1">
                    <mxGeometry relative="1" as="geometry">
                        <mxPoint x="510" y="-600" as="targetPoint"/>
                    </mxGeometry>
                </mxCell>
                <mxCell id="C61x0PHZbPYTwjd0VCUy-20" value="pc_id" style="whiteSpace=wrap;html=1;aspect=fixed;fontSize=24;" parent="1" vertex="1">
                    <mxGeometry x="380" y="-640" width="80" height="80" as="geometry"/>
                </mxCell>
                <mxCell id="C61x0PHZbPYTwjd0VCUy-21" style="edgeStyle=none;html=1;entryX=0;entryY=0.5;entryDx=0;entryDy=0;fontSize=24;" parent="1" source="C61x0PHZbPYTwjd0VCUy-23" target="C61x0PHZbPYTwjd0VCUy-20" edge="1">
                    <mxGeometry relative="1" as="geometry"/>
                </mxCell>
                <mxCell id="C61x0PHZbPYTwjd0VCUy-22" style="edgeStyle=none;shape=flexArrow;html=1;entryX=0.084;entryY=-0.007;entryDx=0;entryDy=0;entryPerimeter=0;fontSize=24;" parent="1" source="C61x0PHZbPYTwjd0VCUy-23" target="C61x0PHZbPYTwjd0VCUy-37" edge="1">
                    <mxGeometry relative="1" as="geometry"/>
                </mxCell>
                <mxCell id="C61x0PHZbPYTwjd0VCUy-23" value="pc" style="whiteSpace=wrap;html=1;aspect=fixed;fontSize=24;" parent="1" vertex="1">
                    <mxGeometry x="230" y="-640" width="80" height="80" as="geometry"/>
                </mxCell>
                <mxCell id="C61x0PHZbPYTwjd0VCUy-24" style="edgeStyle=none;html=1;entryX=0;entryY=0.5;entryDx=0;entryDy=0;fontSize=24;exitX=0.875;exitY=0.5;exitDx=0;exitDy=0;exitPerimeter=0;" parent="1" source="C61x0PHZbPYTwjd0VCUy-25" target="C61x0PHZbPYTwjd0VCUy-27" edge="1">
                    <mxGeometry relative="1" as="geometry"/>
                </mxCell>
                <mxCell id="C61x0PHZbPYTwjd0VCUy-25" value="id" style="ellipse;shape=cloud;whiteSpace=wrap;html=1;fontSize=24;" parent="1" vertex="1">
                    <mxGeometry x="490" y="-640" width="120" height="80" as="geometry"/>
                </mxCell>
                <mxCell id="C61x0PHZbPYTwjd0VCUy-26" style="edgeStyle=none;html=1;entryX=0.16;entryY=0.55;entryDx=0;entryDy=0;entryPerimeter=0;fontSize=24;" parent="1" source="C61x0PHZbPYTwjd0VCUy-27" target="C61x0PHZbPYTwjd0VCUy-29" edge="1">
                    <mxGeometry relative="1" as="geometry"/>
                </mxCell>
                <mxCell id="C61x0PHZbPYTwjd0VCUy-27" value="id_ex" style="whiteSpace=wrap;html=1;aspect=fixed;fontSize=24;" parent="1" vertex="1">
                    <mxGeometry x="650" y="-640" width="80" height="80" as="geometry"/>
                </mxCell>
                <mxCell id="C61x0PHZbPYTwjd0VCUy-28" style="edgeStyle=none;html=1;entryX=0;entryY=0.5;entryDx=0;entryDy=0;fontSize=24;exitX=0.875;exitY=0.5;exitDx=0;exitDy=0;exitPerimeter=0;" parent="1" source="C61x0PHZbPYTwjd0VCUy-29" target="C61x0PHZbPYTwjd0VCUy-31" edge="1">
                    <mxGeometry relative="1" as="geometry"/>
                </mxCell>
                <mxCell id="lM2QxzhSfQ17ok12c9tM-13" style="edgeStyle=none;rounded=0;orthogonalLoop=1;jettySize=auto;html=1;fontSize=24;" parent="1" source="C61x0PHZbPYTwjd0VCUy-29" target="lM2QxzhSfQ17ok12c9tM-1" edge="1">
                    <mxGeometry relative="1" as="geometry"/>
                </mxCell>
                <mxCell id="C61x0PHZbPYTwjd0VCUy-29" value="ex" style="ellipse;shape=cloud;whiteSpace=wrap;html=1;fontSize=24;" parent="1" vertex="1">
                    <mxGeometry x="770" y="-640" width="120" height="80" as="geometry"/>
                </mxCell>
                <mxCell id="C61x0PHZbPYTwjd0VCUy-30" style="edgeStyle=none;html=1;fontSize=24;entryX=0.16;entryY=0.55;entryDx=0;entryDy=0;entryPerimeter=0;" parent="1" source="C61x0PHZbPYTwjd0VCUy-31" target="C61x0PHZbPYTwjd0VCUy-33" edge="1">
                    <mxGeometry relative="1" as="geometry"/>
                </mxCell>
                <mxCell id="lM2QxzhSfQ17ok12c9tM-11" style="edgeStyle=orthogonalEdgeStyle;rounded=0;orthogonalLoop=1;jettySize=auto;html=1;exitX=1;exitY=1;exitDx=0;exitDy=0;fontSize=24;" parent="1" source="C61x0PHZbPYTwjd0VCUy-31" edge="1">
                    <mxGeometry relative="1" as="geometry">
                        <mxPoint x="1020" y="-559.5384615384617" as="targetPoint"/>
                    </mxGeometry>
                </mxCell>
                <mxCell id="C61x0PHZbPYTwjd0VCUy-31" value="ex_mem" style="whiteSpace=wrap;html=1;aspect=fixed;fontSize=24;" parent="1" vertex="1">
                    <mxGeometry x="940" y="-640" width="103" height="103" as="geometry"/>
                </mxCell>
                <mxCell id="C61x0PHZbPYTwjd0VCUy-32" style="edgeStyle=none;html=1;fontSize=24;" parent="1" edge="1">
                    <mxGeometry relative="1" as="geometry">
                        <mxPoint x="1240" y="-600" as="targetPoint"/>
                        <Array as="points"/>
                        <mxPoint x="1190" y="-600" as="sourcePoint"/>
                    </mxGeometry>
                </mxCell>
                <mxCell id="C61x0PHZbPYTwjd0VCUy-33" value="mem" style="ellipse;shape=cloud;whiteSpace=wrap;html=1;fontSize=24;" parent="1" vertex="1">
                    <mxGeometry x="1080" y="-640" width="120" height="80" as="geometry"/>
                </mxCell>
                <mxCell id="C61x0PHZbPYTwjd0VCUy-34" style="edgeStyle=none;html=1;fontSize=24;" parent="1" source="C61x0PHZbPYTwjd0VCUy-35" target="C61x0PHZbPYTwjd0VCUy-36" edge="1">
                    <mxGeometry relative="1" as="geometry"/>
                </mxCell>
                <mxCell id="C61x0PHZbPYTwjd0VCUy-35" value="mem_wb" style="whiteSpace=wrap;html=1;aspect=fixed;fontSize=24;" parent="1" vertex="1">
                    <mxGeometry x="1240" y="-640" width="80" height="80" as="geometry"/>
                </mxCell>
                <mxCell id="C61x0PHZbPYTwjd0VCUy-36" value="wb" style="ellipse;shape=cloud;whiteSpace=wrap;html=1;fontSize=24;" parent="1" vertex="1">
                    <mxGeometry x="1370" y="-640" width="120" height="80" as="geometry"/>
                </mxCell>
                <mxCell id="C61x0PHZbPYTwjd0VCUy-37" value="bus" style="rounded=0;whiteSpace=wrap;html=1;fontSize=24;" parent="1" vertex="1">
                    <mxGeometry x="152" y="-420" width="1390" height="60" as="geometry"/>
                </mxCell>
                <mxCell id="C61x0PHZbPYTwjd0VCUy-38" value="rom" style="ellipse;shape=cloud;whiteSpace=wrap;html=1;fontSize=24;" parent="1" vertex="1">
                    <mxGeometry x="390" y="-280" width="120" height="80" as="geometry"/>
                </mxCell>
                <mxCell id="C61x0PHZbPYTwjd0VCUy-39" value="ram" style="ellipse;shape=cloud;whiteSpace=wrap;html=1;fontSize=24;" parent="1" vertex="1">
                    <mxGeometry x="550" y="-280" width="120" height="80" as="geometry"/>
                </mxCell>
                <mxCell id="C61x0PHZbPYTwjd0VCUy-40" value="" style="shape=flexArrow;endArrow=classic;startArrow=classic;html=1;fontSize=24;exitX=0.521;exitY=0.147;exitDx=0;exitDy=0;exitPerimeter=0;" parent="1" source="C61x0PHZbPYTwjd0VCUy-38" edge="1">
                    <mxGeometry width="100" height="100" relative="1" as="geometry">
                        <mxPoint x="450" y="-270" as="sourcePoint"/>
                        <mxPoint x="450" y="-360" as="targetPoint"/>
                    </mxGeometry>
                </mxCell>
                <mxCell id="C61x0PHZbPYTwjd0VCUy-41" value="" style="shape=flexArrow;endArrow=classic;startArrow=classic;html=1;fontSize=24;exitX=0.512;exitY=0.119;exitDx=0;exitDy=0;exitPerimeter=0;" parent="1" source="C61x0PHZbPYTwjd0VCUy-39" edge="1">
                    <mxGeometry width="100" height="100" relative="1" as="geometry">
                        <mxPoint x="609.17" y="-270" as="sourcePoint"/>
                        <mxPoint x="609.1700000000001" y="-360" as="targetPoint"/>
                    </mxGeometry>
                </mxCell>
                <mxCell id="C61x0PHZbPYTwjd0VCUy-42" style="edgeStyle=none;shape=flexArrow;html=1;entryX=0.55;entryY=0.95;entryDx=0;entryDy=0;entryPerimeter=0;fontSize=24;exitX=0.712;exitY=0.002;exitDx=0;exitDy=0;exitPerimeter=0;" parent="1" source="C61x0PHZbPYTwjd0VCUy-37" target="C61x0PHZbPYTwjd0VCUy-33" edge="1">
                    <mxGeometry relative="1" as="geometry">
                        <mxPoint x="1100" y="-410.4200000000001" as="sourcePoint"/>
                        <mxPoint x="1110" y="-570" as="targetPoint"/>
                    </mxGeometry>
                </mxCell>
                <mxCell id="C61x0PHZbPYTwjd0VCUy-43" style="edgeStyle=none;shape=flexArrow;html=1;entryX=0.925;entryY=0.002;entryDx=0;entryDy=0;entryPerimeter=0;fontSize=24;exitX=0.55;exitY=0.95;exitDx=0;exitDy=0;exitPerimeter=0;" parent="1" source="C61x0PHZbPYTwjd0VCUy-36" target="C61x0PHZbPYTwjd0VCUy-37" edge="1">
                    <mxGeometry relative="1" as="geometry">
                        <mxPoint x="1410.2537999777257" y="-559.58" as="sourcePoint"/>
                        <mxPoint x="1409.29" y="-420.0000000000001" as="targetPoint"/>
                    </mxGeometry>
                </mxCell>
                <mxCell id="C61x0PHZbPYTwjd0VCUy-44" value="" style="shape=flexArrow;endArrow=classic;html=1;rounded=0;entryX=0.5;entryY=1;entryDx=0;entryDy=0;exitX=0.193;exitY=-0.071;exitDx=0;exitDy=0;exitPerimeter=0;" parent="1" source="C61x0PHZbPYTwjd0VCUy-37" target="C61x0PHZbPYTwjd0VCUy-20" edge="1">
                    <mxGeometry width="50" height="50" relative="1" as="geometry">
                        <mxPoint x="530" y="-460" as="sourcePoint"/>
                        <mxPoint x="580" y="-510" as="targetPoint"/>
                    </mxGeometry>
                </mxCell>
                <mxCell id="C61x0PHZbPYTwjd0VCUy-45" value="" style="endArrow=none;dashed=1;html=1;dashPattern=1 3;strokeWidth=2;rounded=0;" parent="1" edge="1">
                    <mxGeometry width="50" height="50" relative="1" as="geometry">
                        <mxPoint x="180" y="-460" as="sourcePoint"/>
                        <mxPoint x="180" y="-860" as="targetPoint"/>
                    </mxGeometry>
                </mxCell>
                <mxCell id="C61x0PHZbPYTwjd0VCUy-46" value="" style="endArrow=none;dashed=1;html=1;dashPattern=1 3;strokeWidth=2;rounded=0;" parent="1" edge="1">
                    <mxGeometry width="50" height="50" relative="1" as="geometry">
                        <mxPoint x="490" y="-460" as="sourcePoint"/>
                        <mxPoint x="490" y="-860" as="targetPoint"/>
                    </mxGeometry>
                </mxCell>
                <mxCell id="C61x0PHZbPYTwjd0VCUy-47" value="" style="endArrow=none;dashed=1;html=1;dashPattern=1 3;strokeWidth=2;rounded=0;" parent="1" edge="1">
                    <mxGeometry width="50" height="50" relative="1" as="geometry">
                        <mxPoint x="770" y="-460" as="sourcePoint"/>
                        <mxPoint x="770" y="-860" as="targetPoint"/>
                    </mxGeometry>
                </mxCell>
                <mxCell id="C61x0PHZbPYTwjd0VCUy-48" value="" style="endArrow=none;dashed=1;html=1;dashPattern=1 3;strokeWidth=2;rounded=0;" parent="1" edge="1">
                    <mxGeometry width="50" height="50" relative="1" as="geometry">
                        <mxPoint x="1050" y="-460" as="sourcePoint"/>
                        <mxPoint x="1050" y="-860" as="targetPoint"/>
                    </mxGeometry>
                </mxCell>
                <mxCell id="C61x0PHZbPYTwjd0VCUy-49" value="" style="endArrow=none;dashed=1;html=1;dashPattern=1 3;strokeWidth=2;rounded=0;" parent="1" edge="1">
                    <mxGeometry width="50" height="50" relative="1" as="geometry">
                        <mxPoint x="1340" y="-450" as="sourcePoint"/>
                        <mxPoint x="1340" y="-850" as="targetPoint"/>
                    </mxGeometry>
                </mxCell>
                <mxCell id="C61x0PHZbPYTwjd0VCUy-50" value="" style="endArrow=none;dashed=1;html=1;dashPattern=1 3;strokeWidth=2;rounded=0;" parent="1" edge="1">
                    <mxGeometry width="50" height="50" relative="1" as="geometry">
                        <mxPoint x="1560" y="-450" as="sourcePoint"/>
                        <mxPoint x="1560" y="-850" as="targetPoint"/>
                    </mxGeometry>
                </mxCell>
                <mxCell id="C61x0PHZbPYTwjd0VCUy-51" value="第一级" style="rounded=1;whiteSpace=wrap;html=1;fontSize=24;" parent="1" vertex="1">
                    <mxGeometry x="280" y="-950" width="120" height="60" as="geometry"/>
                </mxCell>
                <mxCell id="C61x0PHZbPYTwjd0VCUy-52" value="第二级" style="rounded=1;whiteSpace=wrap;html=1;fontSize=24;" parent="1" vertex="1">
                    <mxGeometry x="570" y="-950" width="120" height="60" as="geometry"/>
                </mxCell>
                <mxCell id="C61x0PHZbPYTwjd0VCUy-53" value="第三级" style="rounded=1;whiteSpace=wrap;html=1;fontSize=24;" parent="1" vertex="1">
                    <mxGeometry x="860" y="-950" width="120" height="60" as="geometry"/>
                </mxCell>
                <mxCell id="C61x0PHZbPYTwjd0VCUy-54" value="第四级" style="rounded=1;whiteSpace=wrap;html=1;fontSize=24;" parent="1" vertex="1">
                    <mxGeometry x="1140" y="-950" width="120" height="60" as="geometry"/>
                </mxCell>
                <mxCell id="C61x0PHZbPYTwjd0VCUy-55" value="第五级" style="rounded=1;whiteSpace=wrap;html=1;fontSize=24;" parent="1" vertex="1">
                    <mxGeometry x="1390" y="-950" width="120" height="60" as="geometry"/>
                </mxCell>
                <mxCell id="C61x0PHZbPYTwjd0VCUy-57" value="" style="shape=flexArrow;endArrow=classic;html=1;rounded=0;fontSize=24;entryX=0;entryY=0.25;entryDx=0;entryDy=0;" parent="1" edge="1">
                    <mxGeometry width="50" height="50" relative="1" as="geometry">
                        <mxPoint x="-20" y="-820" as="sourcePoint"/>
                        <mxPoint x="120" y="-820" as="targetPoint"/>
                    </mxGeometry>
                </mxCell>
                <mxCell id="C61x0PHZbPYTwjd0VCUy-58" value="" style="shape=flexArrow;endArrow=classic;html=1;rounded=0;fontSize=24;entryX=0;entryY=0.25;entryDx=0;entryDy=0;" parent="1" edge="1">
                    <mxGeometry width="50" height="50" relative="1" as="geometry">
                        <mxPoint x="-20" y="-750" as="sourcePoint"/>
                        <mxPoint x="120" y="-750" as="targetPoint"/>
                    </mxGeometry>
                </mxCell>
                <mxCell id="C61x0PHZbPYTwjd0VCUy-59" value="clk" style="text;html=1;strokeColor=none;fillColor=none;align=center;verticalAlign=middle;whiteSpace=wrap;rounded=0;fontSize=24;" parent="1" vertex="1">
                    <mxGeometry x="-80" y="-840" width="70" height="40" as="geometry"/>
                </mxCell>
                <mxCell id="C61x0PHZbPYTwjd0VCUy-60" value="arst_n" style="text;html=1;strokeColor=none;fillColor=none;align=center;verticalAlign=middle;whiteSpace=wrap;rounded=0;fontSize=24;" parent="1" vertex="1">
                    <mxGeometry x="-90" y="-770" width="70" height="40" as="geometry"/>
                </mxCell>
                <mxCell id="lM2QxzhSfQ17ok12c9tM-6" style="edgeStyle=orthogonalEdgeStyle;rounded=0;orthogonalLoop=1;jettySize=auto;html=1;entryX=0.75;entryY=0;entryDx=0;entryDy=0;fontSize=24;" parent="1" source="C61x0PHZbPYTwjd0VCUy-61" target="C61x0PHZbPYTwjd0VCUy-23" edge="1">
                    <mxGeometry relative="1" as="geometry"/>
                </mxCell>
                <mxCell id="lM2QxzhSfQ17ok12c9tM-7" style="edgeStyle=orthogonalEdgeStyle;rounded=0;orthogonalLoop=1;jettySize=auto;html=1;entryX=0.625;entryY=0.2;entryDx=0;entryDy=0;entryPerimeter=0;fontSize=24;" parent="1" source="C61x0PHZbPYTwjd0VCUy-61" target="C61x0PHZbPYTwjd0VCUy-29" edge="1">
                    <mxGeometry relative="1" as="geometry"/>
                </mxCell>
                <mxCell id="lM2QxzhSfQ17ok12c9tM-8" style="edgeStyle=orthogonalEdgeStyle;rounded=0;orthogonalLoop=1;jettySize=auto;html=1;entryX=0.625;entryY=0.2;entryDx=0;entryDy=0;entryPerimeter=0;fontSize=24;" parent="1" source="C61x0PHZbPYTwjd0VCUy-61" target="C61x0PHZbPYTwjd0VCUy-33" edge="1">
                    <mxGeometry relative="1" as="geometry"/>
                </mxCell>
                <mxCell id="lM2QxzhSfQ17ok12c9tM-9" style="edgeStyle=orthogonalEdgeStyle;rounded=0;orthogonalLoop=1;jettySize=auto;html=1;entryX=0.625;entryY=0.2;entryDx=0;entryDy=0;entryPerimeter=0;fontSize=24;" parent="1" source="C61x0PHZbPYTwjd0VCUy-61" target="C61x0PHZbPYTwjd0VCUy-36" edge="1">
                    <mxGeometry relative="1" as="geometry"/>
                </mxCell>
                <mxCell id="lM2QxzhSfQ17ok12c9tM-10" style="edgeStyle=orthogonalEdgeStyle;rounded=0;orthogonalLoop=1;jettySize=auto;html=1;entryX=0.625;entryY=0.2;entryDx=0;entryDy=0;entryPerimeter=0;fontSize=24;" parent="1" source="C61x0PHZbPYTwjd0VCUy-61" target="C61x0PHZbPYTwjd0VCUy-25" edge="1">
                    <mxGeometry relative="1" as="geometry"/>
                </mxCell>
                <mxCell id="C61x0PHZbPYTwjd0VCUy-61" value="regs" style="rounded=0;whiteSpace=wrap;html=1;fontSize=24;" parent="1" vertex="1">
                    <mxGeometry x="530" y="-750" width="120" height="60" as="geometry"/>
                </mxCell>
                <mxCell id="C61x0PHZbPYTwjd0VCUy-69" style="edgeStyle=orthogonalEdgeStyle;rounded=0;orthogonalLoop=1;jettySize=auto;html=1;entryX=0.5;entryY=0;entryDx=0;entryDy=0;fontSize=24;exitX=0.07;exitY=0.4;exitDx=0;exitDy=0;exitPerimeter=0;" parent="1" source="lM2QxzhSfQ17ok12c9tM-1" target="C61x0PHZbPYTwjd0VCUy-23" edge="1">
                    <mxGeometry relative="1" as="geometry">
                        <mxPoint x="887" y="-809.909090909091" as="sourcePoint"/>
                        <Array as="points">
                            <mxPoint x="888" y="-810"/>
                            <mxPoint x="270" y="-810"/>
                        </Array>
                    </mxGeometry>
                </mxCell>
                <mxCell id="lM2QxzhSfQ17ok12c9tM-2" style="edgeStyle=orthogonalEdgeStyle;rounded=0;orthogonalLoop=1;jettySize=auto;html=1;entryX=0.5;entryY=0;entryDx=0;entryDy=0;fontSize=24;" parent="1" source="lM2QxzhSfQ17ok12c9tM-1" target="C61x0PHZbPYTwjd0VCUy-20" edge="1">
                    <mxGeometry relative="1" as="geometry"/>
                </mxCell>
                <mxCell id="lM2QxzhSfQ17ok12c9tM-3" style="edgeStyle=orthogonalEdgeStyle;rounded=0;orthogonalLoop=1;jettySize=auto;html=1;entryX=0.5;entryY=0;entryDx=0;entryDy=0;fontSize=24;" parent="1" source="lM2QxzhSfQ17ok12c9tM-1" target="C61x0PHZbPYTwjd0VCUy-27" edge="1">
                    <mxGeometry relative="1" as="geometry"/>
                </mxCell>
                <mxCell id="lM2QxzhSfQ17ok12c9tM-4" style="edgeStyle=orthogonalEdgeStyle;rounded=0;orthogonalLoop=1;jettySize=auto;html=1;entryX=0.5;entryY=0;entryDx=0;entryDy=0;fontSize=24;" parent="1" source="lM2QxzhSfQ17ok12c9tM-1" target="C61x0PHZbPYTwjd0VCUy-31" edge="1">
                    <mxGeometry relative="1" as="geometry"/>
                </mxCell>
                <mxCell id="lM2QxzhSfQ17ok12c9tM-5" style="edgeStyle=orthogonalEdgeStyle;rounded=0;orthogonalLoop=1;jettySize=auto;html=1;entryX=0.5;entryY=0;entryDx=0;entryDy=0;fontSize=24;" parent="1" source="lM2QxzhSfQ17ok12c9tM-1" target="C61x0PHZbPYTwjd0VCUy-35" edge="1">
                    <mxGeometry relative="1" as="geometry"/>
                </mxCell>
                <mxCell id="lM2QxzhSfQ17ok12c9tM-1" value="&lt;font style=&quot;font-size: 24px;&quot;&gt;ctrl&lt;/font&gt;" style="ellipse;shape=cloud;whiteSpace=wrap;html=1;" parent="1" vertex="1">
                    <mxGeometry x="880" y="-850" width="120" height="80" as="geometry"/>
                </mxCell>
                <mxCell id="2" value="" style="shape=flexArrow;endArrow=classic;html=1;rounded=0;fontSize=24;entryX=0;entryY=0.25;entryDx=0;entryDy=0;" edge="1" parent="1">
                    <mxGeometry width="50" height="50" relative="1" as="geometry">
                        <mxPoint x="-20.000000000000227" y="-680.0000000000001" as="sourcePoint"/>
                        <mxPoint x="119.99999999999977" y="-680.0000000000001" as="targetPoint"/>
                    </mxGeometry>
                </mxCell>
                <mxCell id="3" value="&lt;font style=&quot;font-size: 24px&quot;&gt;hold&lt;/font&gt;" style="text;html=1;strokeColor=none;fillColor=none;align=center;verticalAlign=middle;whiteSpace=wrap;rounded=0;" vertex="1" parent="1">
                    <mxGeometry x="-90" y="-700" width="80" height="40" as="geometry"/>
                </mxCell>
            </root>
        </mxGraphModel>
    </diagram>
</mxfile>